{
	"asset":{
		"generator":"Khronos glTF Blender I/O v4.5.47",
		"version":"2.0"
	},
	"scene":0,
	"scenes":[
		{
			"name":"Scene",
			"nodes":[
				0
			]
		}
	],
	"nodes":[
		{
			"mesh":0,
			"name":"Swiss red mug",
			"scale":[
				0.06767889112234116,
				0.06767889112234116,
				0.06767889112234116
			]
		}
	],
	"materials":[
		{
			"doubleSided":true,
			"name":"Cup",
			"pbrMetallicRoughness":{
				"baseColorTexture":{
					"index":0
				},
				"metallicFactor":0,
				"roughnessFactor":0.15000000596046448
			}
		}
	],
	"meshes":[
		{
			"name":"Circle.008",
			"primitives":[
				{
					"attributes":{
						"POSITION":0,
						"NORMAL":1,
						"TEXCOORD_0":2
					},
					"indices":3,
					"material":0
				}
			]
		}
	],
	"textures":[
		{
			"sampler":0,
			"source":0
		}
	],
	"images":[
		{
			"mimeType":"image/jpeg",
			"name":"Swiss_cup_texture",
			"uri":"Swiss_cup_texture.jpg"
		}
	],
	"accessors":[
		{
			"bufferView":0,
			"componentType":5126,
			"count":6263,
			"max":[
				0.9890816807746887,
				1.61270272731781,
				0.6423377394676208
			],
			"min":[
				-0.6423558592796326,
				-0.010913077741861343,
				-0.6423378586769104
			],
			"type":"VEC3"
		},
		{
			"bufferView":1,
			"componentType":5126,
			"count":6263,
			"type":"VEC3"
		},
		{
			"bufferView":2,
			"componentType":5126,
			"count":6263,
			"type":"VEC2"
		},
		{
			"bufferView":3,
			"componentType":5123,
			"count":33774,
			"type":"SCALAR"
		}
	],
	"bufferViews":[
		{
			"buffer":0,
			"byteLength":75156,
			"byteOffset":0,
			"target":34962
		},
		{
			"buffer":0,
			"byteLength":75156,
			"byteOffset":75156,
			"target":34962
		},
		{
			"buffer":0,
			"byteLength":50104,
			"byteOffset":150312,
			"target":34962
		},
		{
			"buffer":0,
			"byteLength":67548,
			"byteOffset":200416,
			"target":34963
		}
	],
	"samplers":[
		{
			"magFilter":9729,
			"minFilter":9987
		}
	],
	"buffers":[
		{
			"byteLength":267964,
			"uri":"1HI.bin"
		}
	]
}
