{
	"asset":{
		"generator":"Khronos glTF Blender I/O v4.5.51",
		"version":"2.0"
	},
	"extensionsUsed":[
		"EXT_texture_webp"
	],
	"extensionsRequired":[
		"EXT_texture_webp"
	],
	"scene":0,
	"scenes":[
		{
			"name":"Scene",
			"nodes":[
				0
			]
		}
	],
	"nodes":[
		{
			"mesh":0,
			"name":"geometry_0.001",
			"scale":[
				0.2236482799053192,
				0.2236482799053192,
				0.2236482799053192
			]
		}
	],
	"materials":[
		{
			"name":"Material_0.001",
			"pbrMetallicRoughness":{
				"baseColorTexture":{
					"index":0
				},
				"metallicRoughnessTexture":{
					"index":1
				}
			}
		}
	],
	"meshes":[
		{
			"name":"geometry_0.001",
			"primitives":[
				{
					"attributes":{
						"POSITION":0,
						"NORMAL":1,
						"TEXCOORD_0":2
					},
					"indices":3,
					"material":0
				}
			]
		}
	],
	"textures":[
		{
			"extensions":{
				"EXT_texture_webp":{
					"source":0
				}
			},
			"sampler":0
		},
		{
			"extensions":{
				"EXT_texture_webp":{
					"source":1
				}
			},
			"sampler":0
		}
	],
	"images":[
		{
			"mimeType":"image/webp",
			"name":"Image_0",
			"uri":"Image_0.webp"
		},
		{
			"mimeType":"image/webp",
			"name":"Image_1",
			"uri":"Image_1.webp"
		}
	],
	"accessors":[
		{
			"bufferView":0,
			"componentType":5126,
			"count":118149,
			"max":[
				0.5107120871543884,
				0.161513090133667,
				0.15159907937049866
			],
			"min":[
				-0.4905778169631958,
				-0.10204426944255829,
				-0.10520423948764801
			],
			"type":"VEC3"
		},
		{
			"bufferView":1,
			"componentType":5126,
			"count":118149,
			"type":"VEC3"
		},
		{
			"bufferView":2,
			"componentType":5126,
			"count":118149,
			"type":"VEC2"
		},
		{
			"bufferView":3,
			"componentType":5125,
			"count":304350,
			"type":"SCALAR"
		}
	],
	"bufferViews":[
		{
			"buffer":0,
			"byteLength":1417788,
			"byteOffset":0,
			"target":34962
		},
		{
			"buffer":0,
			"byteLength":1417788,
			"byteOffset":1417788,
			"target":34962
		},
		{
			"buffer":0,
			"byteLength":945192,
			"byteOffset":2835576,
			"target":34962
		},
		{
			"buffer":0,
			"byteLength":1217400,
			"byteOffset":3780768,
			"target":34963
		}
	],
	"samplers":[
		{
			"magFilter":9729,
			"minFilter":9987
		}
	],
	"buffers":[
		{
			"byteLength":4998168,
			"uri":"1Sattelite.bin"
		}
	]
}
