{
	"asset":{
		"generator":"Khronos glTF Blender I/O v4.5.51",
		"version":"2.0"
	},
	"extensionsUsed":[
		"EXT_texture_webp"
	],
	"extensionsRequired":[
		"EXT_texture_webp"
	],
	"scene":0,
	"scenes":[
		{
			"name":"Scene",
			"nodes":[
				0
			]
		}
	],
	"nodes":[
		{
			"mesh":0,
			"name":"geometry_0",
			"scale":[
				0.12282422930002213,
				0.12282422930002213,
				0.12282422930002213
			]
		}
	],
	"materials":[
		{
			"name":"Material_0",
			"pbrMetallicRoughness":{
				"baseColorTexture":{
					"index":0
				},
				"metallicRoughnessTexture":{
					"index":1
				}
			}
		}
	],
	"meshes":[
		{
			"name":"geometry_0",
			"primitives":[
				{
					"attributes":{
						"POSITION":0,
						"NORMAL":1,
						"TEXCOORD_0":2
					},
					"indices":3,
					"material":0
				}
			]
		}
	],
	"textures":[
		{
			"extensions":{
				"EXT_texture_webp":{
					"source":0
				}
			},
			"sampler":0
		},
		{
			"extensions":{
				"EXT_texture_webp":{
					"source":1
				}
			},
			"sampler":0
		}
	],
	"images":[
		{
			"mimeType":"image/webp",
			"name":"Image_0",
			"uri":"Image_0.webp"
		},
		{
			"mimeType":"image/webp",
			"name":"Image_1",
			"uri":"Image_1.webp"
		}
	],
	"accessors":[
		{
			"bufferView":0,
			"componentType":5126,
			"count":241492,
			"max":[
				0.4404243230819702,
				0.913739025592804,
				0.5015340447425842
			],
			"min":[
				-0.44077298045158386,
				-0.04200458526611328,
				-0.5006003379821777
			],
			"type":"VEC3"
		},
		{
			"bufferView":1,
			"componentType":5126,
			"count":241492,
			"type":"VEC3"
		},
		{
			"bufferView":2,
			"componentType":5126,
			"count":241492,
			"type":"VEC2"
		},
		{
			"bufferView":3,
			"componentType":5125,
			"count":539418,
			"type":"SCALAR"
		}
	],
	"bufferViews":[
		{
			"buffer":0,
			"byteLength":2897904,
			"byteOffset":0,
			"target":34962
		},
		{
			"buffer":0,
			"byteLength":2897904,
			"byteOffset":2897904,
			"target":34962
		},
		{
			"buffer":0,
			"byteLength":1931936,
			"byteOffset":5795808,
			"target":34962
		},
		{
			"buffer":0,
			"byteLength":2157672,
			"byteOffset":7727744,
			"target":34963
		}
	],
	"samplers":[
		{
			"magFilter":9729,
			"minFilter":9987
		}
	],
	"buffers":[
		{
			"byteLength":9885416,
			"uri":"Getters.bin"
		}
	]
}
