{
	"asset":{
		"generator":"Khronos glTF Blender I/O v4.5.51",
		"version":"2.0"
	},
	"extensionsUsed":[
		"EXT_texture_webp"
	],
	"extensionsRequired":[
		"EXT_texture_webp"
	],
	"scene":0,
	"scenes":[
		{
			"name":"Scene",
			"nodes":[
				0
			]
		}
	],
	"nodes":[
		{
			"mesh":0,
			"name":"geometry_0.001"
		}
	],
	"materials":[
		{
			"name":"Material_0.001",
			"pbrMetallicRoughness":{
				"baseColorTexture":{
					"index":0
				},
				"metallicRoughnessTexture":{
					"index":1
				}
			}
		}
	],
	"meshes":[
		{
			"name":"geometry_0.001",
			"primitives":[
				{
					"attributes":{
						"POSITION":0,
						"NORMAL":1,
						"TEXCOORD_0":2
					},
					"indices":3,
					"material":0
				}
			]
		}
	],
	"textures":[
		{
			"extensions":{
				"EXT_texture_webp":{
					"source":0
				}
			},
			"sampler":0
		},
		{
			"extensions":{
				"EXT_texture_webp":{
					"source":1
				}
			},
			"sampler":0
		}
	],
	"images":[
		{
			"mimeType":"image/webp",
			"name":"Image_0",
			"uri":"Image_0.webp"
		},
		{
			"mimeType":"image/webp",
			"name":"Image_1",
			"uri":"Image_1.webp"
		}
	],
	"accessors":[
		{
			"bufferView":0,
			"componentType":5126,
			"count":248869,
			"max":[
				0.5006442666053772,
				0.19435475766658783,
				0.2696109414100647
			],
			"min":[
				-0.5006750822067261,
				-0.19589921832084656,
				0.01286279410123825
			],
			"type":"VEC3"
		},
		{
			"bufferView":1,
			"componentType":5126,
			"count":248869,
			"type":"VEC3"
		},
		{
			"bufferView":2,
			"componentType":5126,
			"count":248869,
			"type":"VEC2"
		},
		{
			"bufferView":3,
			"componentType":5125,
			"count":890154,
			"type":"SCALAR"
		}
	],
	"bufferViews":[
		{
			"buffer":0,
			"byteLength":2986428,
			"byteOffset":0,
			"target":34962
		},
		{
			"buffer":0,
			"byteLength":2986428,
			"byteOffset":2986428,
			"target":34962
		},
		{
			"buffer":0,
			"byteLength":1990952,
			"byteOffset":5972856,
			"target":34962
		},
		{
			"buffer":0,
			"byteLength":3560616,
			"byteOffset":7963808,
			"target":34963
		}
	],
	"samplers":[
		{
			"magFilter":9729,
			"minFilter":9987
		}
	],
	"buffers":[
		{
			"byteLength":11524424,
			"uri":"Sattelite.bin"
		}
	]
}
